<svg width="121" height="48" viewBox="0 0 121 48" fill="none" xmlns="http://www.w3.org/2000/svg">
<mask id="mask0_4305_1845" style="mask-type:luminance" maskUnits="userSpaceOnUse" x="0" y="0" width="121" height="48">
<path d="M120.709 0.544189H0.0109863V47.1142H120.709V0.544189Z" fill="white" style="fill:white;fill-opacity:1;"/>
</mask>
<g mask="url(#mask0_4305_1845)">
<path d="M26.1529 2.04506C25.194 3.96289 23.985 6.21426 23.5263 7.13148C23.0677 8.0487 21.817 10.3835 17.3559 18.7635L9.47614 33.6476L2.3885 47.1141C2.3885 47.3643 2.3885 47.531 5.39033 47.531H8.55892L11.4357 42.2361L15.1463 35.1485L21.4417 23.1412C22.0254 21.9738 24.4853 17.2209 26.82 13.0517C33.6992 -0.164621 34.2412 -1.12354 34.2412 -1.332C33.2015 -1.43621 32.154 -1.43621 31.1143 -1.332H27.9874L26.1529 2.04506Z" fill="white" style="fill:white;fill-opacity:1;"/>
<path d="M45.2911 2.04518C44.2905 3.96301 43.0814 6.21438 42.6228 7.1316L36.4524 18.7637L28.5726 33.6477C24.7786 40.8187 21.61 46.9058 21.5266 47.1142C21.4432 47.3227 21.5266 47.5312 24.5285 47.5312H27.6554L30.5321 42.2363L34.2427 35.1486L40.5382 23.1413C41.1219 21.974 43.5817 17.2211 45.8748 13.0519C52.7956 -0.164499 53.3376 -1.12341 53.3376 -1.33187C52.2979 -1.43609 51.2504 -1.43609 50.2107 -1.33187H47.0838L45.2911 2.04518Z" fill="white" style="fill:white;fill-opacity:1;"/>
<path d="M58.3821 6.04753C56.6728 9.09105 50.7525 19.7642 45.1241 29.7703C39.4957 39.7764 34.9929 48.0314 34.9929 48.1148C36.9644 48.2403 38.9418 48.2403 40.9132 48.1148H46.8335L49.2099 43.3619L51.5863 38.6507H60.7586C69.097 38.6507 69.9725 38.6507 70.1393 39.2344C70.3061 39.8181 70.6813 41.7359 71.0982 43.9873L71.8904 48.1565H77.6439C81.3961 45.9885 81.813 43.9873 81.5212 43.1534C81.2294 42.3196 82.5218 43.8205 81.8131 40.0682C81.1043 36.3159 79.2281 25.9346 77.5188 17.221L74.3502 0.75265L67.9713 0.544189H61.5924L58.3821 6.04753ZM67.1792 21.6403C67.7628 24.1836 68.2215 26.7685 68.555 29.3534C68.555 29.3534 65.7199 29.3534 62.5097 29.3534H56.6728L60.842 21.6403C63.2184 17.4711 65.303 14.0107 65.3447 14.0524C65.3864 14.0941 66.4704 17.5128 67.3459 21.6403H67.1792Z" fill="white" style="fill:white;fill-opacity:1;"/>
<path d="M76.8084 0.545206C76.8084 1.00382 75.2241 8.88361 73.5147 19.0148C72.9727 21.8498 72.0138 27.3532 71.305 31.5224C69.3038 42.8626 68.8035 45.7393 68.7618 47.1569V48.4493H74.1818C78.351 48.4493 79.7685 48.4493 80.2271 48.0741C80.6857 47.6989 86.1474 41.3617 92.7347 33.732C99.322 26.1024 104.659 19.8069 104.742 19.8903C104.825 19.9737 104.367 22.8504 101.198 41.1115C100.573 44.6553 100.072 47.7406 100.072 47.9907C100.072 48.2409 101.323 48.491 105.784 48.491C107.687 48.5959 109.594 48.5959 111.496 48.491C111.496 48.491 112.58 42.2372 113.914 34.816C119.251 5.54825 120.001 1.21228 120.001 0.545206C120.001 -0.121866 119.501 -0.0801738 114.206 -0.0801738H108.411L105.618 3.33857L101.198 8.63346L91.7341 19.8069C87.5649 24.8933 83.8126 29.0625 83.7292 29.0625C83.6458 29.0625 83.7292 28.7707 83.7292 28.3955C83.7292 28.0202 84.9383 21.8915 86.1057 14.7205C87.2731 7.54946 88.3987 1.29566 88.4821 0.83705V0.0032103H82.7286C78.4343 -0.0384817 76.8917 0.0865943 76.8084 0.545206Z" fill="#971918" style="fill:#971918;fill:color(display-p3 0.5922 0.0980 0.0941);fill-opacity:1;"/>
<path d="M35.2826 2.50388C33.2397 6.67308 32.4475 7.92384 30.3629 11.8846C28.9454 14.5112 28.1116 16.0538 23.6088 24.7257C21.7327 28.2695 19.4396 32.5221 18.5224 34.1898L15.2704 40.3602C14.3532 42.0696 13.2275 44.2793 12.6855 45.3216C12.2969 45.9808 11.9489 46.663 11.6432 47.3645C12.6691 47.467 13.7026 47.467 14.7284 47.3645H17.8136L19.0227 45.1965C19.4068 44.3798 19.8384 43.5863 20.3152 42.8201C20.3152 42.8201 21.2741 41.0273 22.2747 39.1095C23.2753 37.1916 24.4427 34.9403 24.943 33.9813C27.1526 29.8121 28.2783 27.6859 33.74 17.3045C35.6161 13.7607 37.9092 9.50814 38.8264 7.84046C41.4113 3.17095 43.5793 -0.998248 43.5793 -1.16502C42.5303 -1.31885 41.4708 -1.38856 40.4107 -1.37348H37.534L35.2826 2.50388Z" fill="#971918" style="fill:#971918;fill:color(display-p3 0.5922 0.0980 0.0941);fill-opacity:1;"/>
</g>
</svg>
