<svg width="121" height="47" viewBox="0 0 121 47" fill="none" xmlns="http://www.w3.org/2000/svg">
<mask id="mask0_2310_5438" style="mask-type:luminance" maskUnits="userSpaceOnUse" x="0" y="0" width="121" height="47">
<path d="M120.866 0H0.167969V46.57H120.866V0Z" fill="white" style="fill:white;fill-opacity:1;"/>
</mask>
<g mask="url(#mask0_2310_5438)">
<path d="M26.3099 1.50087C25.3509 3.4187 24.1419 5.67007 23.6833 6.58729C23.2246 7.50451 21.9739 9.83927 17.5128 18.2194L9.63305 33.1034L2.54541 46.5699C2.54541 46.8201 2.54541 46.9868 5.54723 46.9868H8.71583L11.5926 41.692L15.3032 34.6043L21.5987 22.597C22.1823 21.4296 24.6422 16.6768 26.9769 12.5076C33.8561 -0.70881 34.3981 -1.66773 34.3981 -1.87619C33.3584 -1.9804 32.3109 -1.9804 31.2712 -1.87619H28.1443L26.3099 1.50087Z" fill="#1F1E1E" style="fill:#1F1E1E;fill:color(display-p3 0.1216 0.1176 0.1176);fill-opacity:1;"/>
<path d="M45.448 1.50099C44.4474 3.41882 43.2384 5.67019 42.7798 6.58741L36.6093 18.2195L28.7296 33.1035C24.9356 40.2746 21.767 46.3616 21.6836 46.57C21.6002 46.7785 21.6836 46.987 24.6854 46.987H27.8123L30.6891 41.6921L34.3997 34.6044L40.6952 22.5971C41.2789 21.4298 43.7387 16.6769 46.0317 12.5077C52.9526 -0.708688 53.4946 -1.6676 53.4946 -1.87606C52.4549 -1.98028 51.4074 -1.98028 50.3677 -1.87606H47.2408L45.448 1.50099Z" fill="#1F1E1E" style="fill:#1F1E1E;fill:color(display-p3 0.1216 0.1176 0.1176);fill-opacity:1;"/>
<path d="M58.5391 5.50335C56.8297 8.54686 50.9095 19.22 45.2811 29.2261C39.6526 39.2322 35.1499 47.4872 35.1499 47.5706C37.1213 47.6961 39.0987 47.6961 41.0702 47.5706H46.9904L49.3669 42.8177L51.7433 38.1065H60.9156C69.254 38.1065 70.1295 38.1065 70.2963 38.6902C70.463 39.2739 70.8382 41.1917 71.2552 43.4431L72.0473 47.6123H77.8008C81.5531 45.4443 81.97 43.4431 81.6782 42.6092C81.3863 41.7754 82.6788 43.2763 81.97 39.524C81.2613 35.7717 79.3851 25.3904 77.6757 16.6768L74.5071 0.20846L68.1283 0H61.7494L58.5391 5.50335ZM67.3361 21.0962C67.9198 23.6394 68.3784 26.2243 68.712 28.8092C68.712 28.8092 65.8769 28.8092 62.6666 28.8092H56.8297L60.9989 21.0962C63.3754 16.927 65.46 13.4665 65.5017 13.5082C65.5434 13.5499 66.6274 16.9686 67.5029 21.0962H67.3361Z" fill="#1F1E1E" style="fill:#1F1E1E;fill:color(display-p3 0.1216 0.1176 0.1176);fill-opacity:1;"/>
<path d="M76.9655 0.00101691C76.9655 0.459629 75.3812 8.33942 73.6718 18.4706C73.1298 21.3056 72.1709 26.809 71.4622 30.9782C69.4609 42.3184 68.9606 45.1952 68.9189 46.6127V47.9051H74.3389C78.5081 47.9051 79.9256 47.9051 80.3842 47.5299C80.8429 47.1547 86.3045 40.8175 92.8918 33.1879C99.4792 25.5582 104.816 19.2627 104.899 19.3461C104.983 19.4295 104.524 22.3062 101.355 40.5673C100.73 44.1112 100.23 47.1964 100.23 47.4465C100.23 47.6967 101.48 47.9468 105.941 47.9468C107.844 48.0517 109.751 48.0517 111.653 47.9468C111.653 47.9468 112.737 41.693 114.071 34.2719C119.408 5.00406 120.158 0.668089 120.158 0.00101691C120.158 -0.666055 119.658 -0.624363 114.363 -0.624363H108.568L105.775 2.79438L101.355 8.08927L91.8912 19.2627C87.722 24.3491 83.9698 28.5184 83.8864 28.5184C83.803 28.5184 83.8864 28.2265 83.8864 27.8513C83.8864 27.4761 85.0954 21.3473 86.2628 14.1763C87.4302 7.00527 88.5559 0.751473 88.6393 0.292861V-0.540979H82.8858C78.5915 -0.582671 77.0489 -0.457595 76.9655 0.00101691Z" fill="#971918" style="fill:#971918;fill:color(display-p3 0.5922 0.0980 0.0941);fill-opacity:1;"/>
<path d="M35.4397 1.95969C33.3967 6.12889 32.6046 7.37965 30.52 11.3404C29.1025 13.967 28.2686 15.5096 23.7659 24.1815C21.8898 27.7254 19.5967 31.9779 18.6795 33.6456L15.4275 39.816C14.5103 41.5254 13.3846 43.7351 12.8426 44.7774C12.454 45.4366 12.1059 46.1188 11.8003 46.8203C12.8261 46.9228 13.8597 46.9228 14.8855 46.8203H17.9707L19.1798 44.6523C19.5639 43.8356 19.9954 43.0421 20.4722 42.2759C20.4722 42.2759 21.4311 40.4831 22.4318 38.5653C23.4324 36.6474 24.5997 34.3961 25.1 33.4372C27.3097 29.268 28.4354 27.1417 33.8971 16.7604C35.7732 13.2165 38.0663 8.96395 38.9835 7.29627C41.5684 2.62676 43.7364 -1.54244 43.7364 -1.70921C42.6874 -1.86304 41.6278 -1.93275 40.5678 -1.91767H37.691L35.4397 1.95969Z" fill="#971918" style="fill:#971918;fill:color(display-p3 0.5922 0.0980 0.0941);fill-opacity:1;"/>
</g>
</svg>
